<svg width="36" height="10" viewBox="0 0 36 10" fill="none" xmlns="http://www.w3.org/2000/svg">
<path d="M0 9.42627V0.145996H1.96777V7.80127H5.73193V9.42627H0Z" fill="#FA6980"/>
<path d="M15.7739 4.77344C15.7739 5.48861 15.6851 6.1403 15.5073 6.72852C15.3296 7.3125 15.0588 7.81608 14.6948 8.23926C14.3351 8.66243 13.8781 8.98828 13.3237 9.2168C12.7694 9.44108 12.1134 9.55322 11.356 9.55322C10.5985 9.55322 9.94255 9.44108 9.38818 9.2168C8.83382 8.98828 8.37467 8.66243 8.01074 8.23926C7.65104 7.81608 7.38232 7.31038 7.20459 6.72217C7.02686 6.13395 6.93799 5.48014 6.93799 4.76074C6.93799 3.80013 7.09456 2.96436 7.40771 2.25342C7.7251 1.53825 8.21175 0.983887 8.86768 0.590332C9.5236 0.196777 10.3573 0 11.3687 0C12.3758 0 13.2031 0.196777 13.8506 0.590332C14.5023 0.983887 14.9847 1.53825 15.2979 2.25342C15.6152 2.96859 15.7739 3.80859 15.7739 4.77344ZM9.00098 4.77344C9.00098 5.4209 9.08138 5.97949 9.24219 6.44922C9.40723 6.91471 9.66325 7.27441 10.0103 7.52832C10.3573 7.77799 10.8058 7.90283 11.356 7.90283C11.9146 7.90283 12.3674 7.77799 12.7144 7.52832C13.0614 7.27441 13.3132 6.91471 13.4697 6.44922C13.6305 5.97949 13.7109 5.4209 13.7109 4.77344C13.7109 3.80013 13.529 3.03418 13.165 2.47559C12.8011 1.91699 12.2023 1.6377 11.3687 1.6377C10.8143 1.6377 10.3615 1.76465 10.0103 2.01855C9.66325 2.26823 9.40723 2.62793 9.24219 3.09766C9.08138 3.56315 9.00098 4.12174 9.00098 4.77344Z" fill="#FA6980"/>
<path d="M21.2202 4.21484H24.9019V9.02637C24.4152 9.18717 23.9095 9.31624 23.3848 9.41357C22.86 9.50667 22.2655 9.55322 21.6011 9.55322C20.6785 9.55322 19.8957 9.37126 19.2524 9.00732C18.6092 8.64339 18.1204 8.10596 17.7861 7.39502C17.4518 6.68408 17.2847 5.81022 17.2847 4.77344C17.2847 3.80013 17.4709 2.95801 17.8433 2.24707C18.2199 1.53613 18.7679 0.986003 19.4873 0.59668C20.2109 0.207357 21.0933 0.0126953 22.1343 0.0126953C22.6252 0.0126953 23.1097 0.0655924 23.5879 0.171387C24.0661 0.277181 24.4998 0.414714 24.8892 0.583984L24.2354 2.1582C23.9518 2.01432 23.6281 1.89372 23.2642 1.79639C22.9002 1.69906 22.5194 1.65039 22.1216 1.65039C21.5503 1.65039 21.0531 1.78158 20.6299 2.04395C20.2109 2.30632 19.8851 2.67448 19.6523 3.14844C19.4238 3.61816 19.3096 4.17253 19.3096 4.81152C19.3096 5.41667 19.3921 5.9541 19.5571 6.42383C19.7222 6.88932 19.9824 7.25537 20.3379 7.52197C20.6934 7.78434 21.1567 7.91553 21.728 7.91553C22.0073 7.91553 22.2422 7.90283 22.4326 7.87744C22.6273 7.84782 22.8092 7.8182 22.9785 7.78857V5.85254H21.2202V4.21484Z" fill="#FA6980"/>
<path d="M35.5405 4.77344C35.5405 5.48861 35.4517 6.1403 35.2739 6.72852C35.0962 7.3125 34.8254 7.81608 34.4614 8.23926C34.1017 8.66243 33.6447 8.98828 33.0903 9.2168C32.536 9.44108 31.88 9.55322 31.1226 9.55322C30.3651 9.55322 29.7091 9.44108 29.1548 9.2168C28.6004 8.98828 28.1413 8.66243 27.7773 8.23926C27.4176 7.81608 27.1489 7.31038 26.9712 6.72217C26.7935 6.13395 26.7046 5.48014 26.7046 4.76074C26.7046 3.80013 26.8612 2.96436 27.1743 2.25342C27.4917 1.53825 27.9784 0.983887 28.6343 0.590332C29.2902 0.196777 30.1239 0 31.1353 0C32.1424 0 32.9697 0.196777 33.6172 0.590332C34.2689 0.983887 34.7513 1.53825 35.0645 2.25342C35.3818 2.96859 35.5405 3.80859 35.5405 4.77344ZM28.7676 4.77344C28.7676 5.4209 28.848 5.97949 29.0088 6.44922C29.1738 6.91471 29.4298 7.27441 29.7769 7.52832C30.1239 7.77799 30.5724 7.90283 31.1226 7.90283C31.6812 7.90283 32.134 7.77799 32.481 7.52832C32.828 7.27441 33.0798 6.91471 33.2363 6.44922C33.3971 5.97949 33.4775 5.4209 33.4775 4.77344C33.4775 3.80013 33.2956 3.03418 32.9316 2.47559C32.5677 1.91699 31.9689 1.6377 31.1353 1.6377C30.5809 1.6377 30.1281 1.76465 29.7769 2.01855C29.4298 2.26823 29.1738 2.62793 29.0088 3.09766C28.848 3.56315 28.7676 4.12174 28.7676 4.77344Z" fill="#FA6980"/>
</svg>
